<mxfile host="app.diagrams.net" modified="2023-09-14T01:42:44.490Z" agent="Mozilla/5.0 (X11; Linux x86_64; rv:109.0) Gecko/20100101 Firefox/117.0" etag="3zTuKL7QGA6mewIpLUk6" version="21.7.5" type="github">
  <diagram name="Page-1" id="Wb3SRLAeydcu2YZGXerj">
    <mxGraphModel dx="1434" dy="767" grid="1" gridSize="10" guides="1" tooltips="1" connect="1" arrows="1" fold="1" page="1" pageScale="1" pageWidth="1000" pageHeight="500" math="0" shadow="0">
      <root>
        <mxCell id="0" />
        <mxCell id="1" parent="0" />
        <mxCell id="3bX8mu_sQhTfUCLtvfod-3" value="" style="edgeStyle=orthogonalEdgeStyle;rounded=0;orthogonalLoop=1;jettySize=auto;html=1;strokeWidth=2;" edge="1" parent="1" source="3bX8mu_sQhTfUCLtvfod-1" target="3bX8mu_sQhTfUCLtvfod-2">
          <mxGeometry relative="1" as="geometry">
            <Array as="points">
              <mxPoint x="95" y="180" />
              <mxPoint x="95" y="180" />
            </Array>
          </mxGeometry>
        </mxCell>
        <mxCell id="3bX8mu_sQhTfUCLtvfod-1" value="&lt;b&gt;&lt;font style=&quot;font-size: 18px;&quot;&gt;Data Download&lt;/font&gt;&lt;/b&gt;" style="rounded=0;whiteSpace=wrap;html=1;fillColor=#dae8fc;strokeColor=#6c8ebf;" vertex="1" parent="1">
          <mxGeometry x="20" y="30" width="240" height="90" as="geometry" />
        </mxCell>
        <mxCell id="3bX8mu_sQhTfUCLtvfod-2" value="&lt;font style=&quot;font-size: 17px;&quot;&gt;&lt;b&gt;MODIS&lt;/b&gt;&lt;/font&gt;" style="rounded=0;whiteSpace=wrap;html=1;fillColor=#fff2cc;strokeColor=#d6b656;" vertex="1" parent="1">
          <mxGeometry x="40" y="200" width="110" height="90" as="geometry" />
        </mxCell>
        <mxCell id="3bX8mu_sQhTfUCLtvfod-8" value="" style="edgeStyle=orthogonalEdgeStyle;rounded=0;orthogonalLoop=1;jettySize=auto;html=1;exitX=1;exitY=0.5;exitDx=0;exitDy=0;entryX=0;entryY=0.5;entryDx=0;entryDy=0;strokeWidth=2;" edge="1" parent="1" source="3bX8mu_sQhTfUCLtvfod-1" target="3bX8mu_sQhTfUCLtvfod-9">
          <mxGeometry relative="1" as="geometry">
            <mxPoint x="320" y="65" as="sourcePoint" />
            <mxPoint x="320" y="145" as="targetPoint" />
            <Array as="points" />
          </mxGeometry>
        </mxCell>
        <mxCell id="3bX8mu_sQhTfUCLtvfod-19" value="" style="edgeStyle=orthogonalEdgeStyle;rounded=0;orthogonalLoop=1;jettySize=auto;html=1;fillColor=#d5e8d4;strokeColor=#82b366;strokeWidth=2;" edge="1" parent="1" source="3bX8mu_sQhTfUCLtvfod-9" target="3bX8mu_sQhTfUCLtvfod-18">
          <mxGeometry relative="1" as="geometry" />
        </mxCell>
        <mxCell id="3bX8mu_sQhTfUCLtvfod-24" value="" style="edgeStyle=orthogonalEdgeStyle;rounded=0;orthogonalLoop=1;jettySize=auto;html=1;entryX=0.533;entryY=0;entryDx=0;entryDy=0;entryPerimeter=0;fillColor=#d5e8d4;strokeColor=#82b366;strokeWidth=2;exitX=0.5;exitY=0;exitDx=0;exitDy=0;" edge="1" parent="1" source="3bX8mu_sQhTfUCLtvfod-9" target="3bX8mu_sQhTfUCLtvfod-21">
          <mxGeometry relative="1" as="geometry">
            <mxPoint x="360" y="10" as="sourcePoint" />
            <mxPoint x="847.9200000000001" y="6.039999999999964" as="targetPoint" />
            <Array as="points">
              <mxPoint x="360" y="10" />
              <mxPoint x="848" y="10" />
            </Array>
          </mxGeometry>
        </mxCell>
        <mxCell id="3bX8mu_sQhTfUCLtvfod-9" value="&lt;b&gt;&lt;font style=&quot;font-size: 17px;&quot;&gt;AERONET&lt;/font&gt;&lt;/b&gt;" style="rounded=0;whiteSpace=wrap;html=1;fillColor=#d5e8d4;strokeColor=#82b366;" vertex="1" parent="1">
          <mxGeometry x="305" y="30" width="110" height="90" as="geometry" />
        </mxCell>
        <mxCell id="3bX8mu_sQhTfUCLtvfod-10" value="" style="edgeStyle=orthogonalEdgeStyle;rounded=0;orthogonalLoop=1;jettySize=auto;html=1;exitX=1;exitY=0.5;exitDx=0;exitDy=0;entryX=0;entryY=0.5;entryDx=0;entryDy=0;fillColor=#fff2cc;strokeColor=#d6b656;strokeWidth=2;" edge="1" parent="1" source="3bX8mu_sQhTfUCLtvfod-2" target="3bX8mu_sQhTfUCLtvfod-12">
          <mxGeometry relative="1" as="geometry">
            <mxPoint x="180" y="235" as="sourcePoint" />
            <mxPoint x="180" y="315" as="targetPoint" />
            <Array as="points" />
          </mxGeometry>
        </mxCell>
        <mxCell id="3bX8mu_sQhTfUCLtvfod-11" value="" style="edgeStyle=orthogonalEdgeStyle;rounded=0;orthogonalLoop=1;jettySize=auto;html=1;entryX=0.5;entryY=0;entryDx=0;entryDy=0;exitX=0.5;exitY=1;exitDx=0;exitDy=0;fillColor=#d5e8d4;strokeColor=#82b366;strokeWidth=2;" edge="1" parent="1" source="3bX8mu_sQhTfUCLtvfod-9" target="3bX8mu_sQhTfUCLtvfod-12">
          <mxGeometry relative="1" as="geometry">
            <mxPoint x="424.5" y="150" as="sourcePoint" />
            <mxPoint x="424.5" y="230" as="targetPoint" />
            <Array as="points">
              <mxPoint x="360" y="170" />
              <mxPoint x="360" y="170" />
            </Array>
          </mxGeometry>
        </mxCell>
        <mxCell id="3bX8mu_sQhTfUCLtvfod-14" value="" style="edgeStyle=orthogonalEdgeStyle;rounded=0;orthogonalLoop=1;jettySize=auto;html=1;strokeWidth=2;" edge="1" parent="1" source="3bX8mu_sQhTfUCLtvfod-12" target="3bX8mu_sQhTfUCLtvfod-13">
          <mxGeometry relative="1" as="geometry">
            <Array as="points">
              <mxPoint x="360" y="420" />
            </Array>
          </mxGeometry>
        </mxCell>
        <mxCell id="3bX8mu_sQhTfUCLtvfod-20" value="" style="edgeStyle=orthogonalEdgeStyle;rounded=0;orthogonalLoop=1;jettySize=auto;html=1;exitX=1;exitY=0.5;exitDx=0;exitDy=0;strokeWidth=2;" edge="1" parent="1" source="3bX8mu_sQhTfUCLtvfod-12" target="3bX8mu_sQhTfUCLtvfod-18">
          <mxGeometry relative="1" as="geometry">
            <Array as="points">
              <mxPoint x="480" y="230" />
              <mxPoint x="590" y="230" />
            </Array>
          </mxGeometry>
        </mxCell>
        <mxCell id="3bX8mu_sQhTfUCLtvfod-12" value="&lt;font style=&quot;font-size: 18px;&quot;&gt;&lt;b&gt;Process Data&lt;/b&gt;&lt;/font&gt;" style="rounded=0;whiteSpace=wrap;html=1;fillColor=#dae8fc;strokeColor=#6c8ebf;" vertex="1" parent="1">
          <mxGeometry x="240" y="200" width="240" height="90" as="geometry" />
        </mxCell>
        <mxCell id="3bX8mu_sQhTfUCLtvfod-32" value="" style="edgeStyle=orthogonalEdgeStyle;rounded=0;orthogonalLoop=1;jettySize=auto;html=1;entryX=0;entryY=0.5;entryDx=0;entryDy=0;strokeWidth=2;" edge="1" parent="1" source="3bX8mu_sQhTfUCLtvfod-13" target="3bX8mu_sQhTfUCLtvfod-26">
          <mxGeometry relative="1" as="geometry">
            <mxPoint x="210" y="550" as="targetPoint" />
            <Array as="points">
              <mxPoint x="555" y="450" />
              <mxPoint x="555" y="380" />
            </Array>
          </mxGeometry>
        </mxCell>
        <mxCell id="3bX8mu_sQhTfUCLtvfod-13" value="&lt;font style=&quot;font-size: 17px;&quot;&gt;&lt;b&gt;Extracting time serie over a point of lat and lon (MODIS)&lt;br&gt;&lt;/b&gt;&lt;/font&gt;" style="rounded=0;whiteSpace=wrap;html=1;fillColor=#dae8fc;strokeColor=#6c8ebf;" vertex="1" parent="1">
          <mxGeometry x="90" y="380" width="240" height="90" as="geometry" />
        </mxCell>
        <mxCell id="3bX8mu_sQhTfUCLtvfod-17" value="" style="edgeStyle=orthogonalEdgeStyle;rounded=0;orthogonalLoop=1;jettySize=auto;html=1;entryX=0;entryY=0.5;entryDx=0;entryDy=0;exitX=0.25;exitY=1;exitDx=0;exitDy=0;fillColor=#fff2cc;strokeColor=#d6b656;strokeWidth=2;" edge="1" parent="1" source="3bX8mu_sQhTfUCLtvfod-2" target="3bX8mu_sQhTfUCLtvfod-13">
          <mxGeometry relative="1" as="geometry">
            <mxPoint x="70" y="320" as="sourcePoint" />
            <mxPoint x="100" y="402.5" as="targetPoint" />
            <Array as="points">
              <mxPoint x="70" y="290" />
              <mxPoint x="70" y="425" />
            </Array>
          </mxGeometry>
        </mxCell>
        <mxCell id="3bX8mu_sQhTfUCLtvfod-18" value="&lt;font style=&quot;font-size: 17px;&quot;&gt;&lt;b&gt;Extracting daily averages and Remer et al., 2013 criterion (AERONET)&lt;br&gt;&lt;/b&gt;&lt;/font&gt;" style="rounded=0;whiteSpace=wrap;html=1;fillColor=#dae8fc;strokeColor=#6c8ebf;" vertex="1" parent="1">
          <mxGeometry x="460" y="30" width="240" height="90" as="geometry" />
        </mxCell>
        <mxCell id="3bX8mu_sQhTfUCLtvfod-28" value="" style="edgeStyle=orthogonalEdgeStyle;rounded=0;orthogonalLoop=1;jettySize=auto;html=1;entryX=0.5;entryY=0;entryDx=0;entryDy=0;strokeWidth=2;" edge="1" parent="1" source="3bX8mu_sQhTfUCLtvfod-21" target="3bX8mu_sQhTfUCLtvfod-26">
          <mxGeometry relative="1" as="geometry">
            <mxPoint x="870" y="200" as="targetPoint" />
          </mxGeometry>
        </mxCell>
        <mxCell id="3bX8mu_sQhTfUCLtvfod-34" style="edgeStyle=orthogonalEdgeStyle;rounded=0;orthogonalLoop=1;jettySize=auto;html=1;exitX=0.5;exitY=0;exitDx=0;exitDy=0;entryX=0.02;entryY=0.167;entryDx=0;entryDy=0;entryPerimeter=0;" edge="1" parent="1" source="3bX8mu_sQhTfUCLtvfod-21">
          <mxGeometry relative="1" as="geometry">
            <mxPoint x="846" y="85.00999999999999" as="targetPoint" />
            <Array as="points">
              <mxPoint x="850" y="30" />
              <mxPoint x="850" y="40" />
            </Array>
          </mxGeometry>
        </mxCell>
        <mxCell id="3bX8mu_sQhTfUCLtvfod-21" value="&lt;font style=&quot;font-size: 17px;&quot;&gt;&lt;b&gt;Extracting daily averages without criterion (AERONET)&lt;br&gt;&lt;/b&gt;&lt;/font&gt;" style="rounded=0;whiteSpace=wrap;html=1;fillColor=#dae8fc;strokeColor=#6c8ebf;" vertex="1" parent="1">
          <mxGeometry x="720" y="30" width="240" height="90" as="geometry" />
        </mxCell>
        <mxCell id="3bX8mu_sQhTfUCLtvfod-25" value="" style="edgeStyle=orthogonalEdgeStyle;rounded=0;orthogonalLoop=1;jettySize=auto;html=1;entryX=0.208;entryY=1;entryDx=0;entryDy=0;entryPerimeter=0;strokeWidth=2;exitX=1.004;exitY=0.667;exitDx=0;exitDy=0;exitPerimeter=0;" edge="1" parent="1" source="3bX8mu_sQhTfUCLtvfod-12" target="3bX8mu_sQhTfUCLtvfod-21">
          <mxGeometry relative="1" as="geometry">
            <mxPoint x="540" y="263" as="sourcePoint" />
            <mxPoint x="800" y="170" as="targetPoint" />
            <Array as="points">
              <mxPoint x="481" y="263" />
              <mxPoint x="770" y="263" />
            </Array>
          </mxGeometry>
        </mxCell>
        <mxCell id="3bX8mu_sQhTfUCLtvfod-26" value="&lt;font style=&quot;font-size: 22px;&quot;&gt;&lt;b&gt;Merge and compare data&lt;/b&gt;&lt;/font&gt;" style="ellipse;whiteSpace=wrap;html=1;aspect=fixed;fillColor=#d80073;fontColor=#ffffff;strokeColor=#A50040;" vertex="1" parent="1">
          <mxGeometry x="780" y="290" width="180" height="180" as="geometry" />
        </mxCell>
      </root>
    </mxGraphModel>
  </diagram>
</mxfile>
